<?xml version="1.0" encoding="UTF-8" standalone="no"?>
<!-- Created with Inkscape (http://www.inkscape.org/) -->

<svg
   width="137.69487"
   height="188.60742"
   viewBox="0 0 36.431768 49.902382"
   version="1.1"
   id="svg5"
   inkscape:version="1.2.2 (b0a8486541, 2022-12-01)"
   sodipodi:docname="exit.svg"
   xmlns:inkscape="http://www.inkscape.org/namespaces/inkscape"
   xmlns:sodipodi="http://sodipodi.sourceforge.net/DTD/sodipodi-0.dtd"
   xmlns="http://www.w3.org/2000/svg"
   xmlns:svg="http://www.w3.org/2000/svg">
  <sodipodi:namedview
     id="namedview7"
     pagecolor="#ffffff"
     bordercolor="#000000"
     borderopacity="0.25"
     inkscape:showpageshadow="false"
     inkscape:pageopacity="0.0"
     inkscape:pagecheckerboard="0"
     inkscape:deskcolor="#d1d1d1"
     inkscape:document-units="px"
     showgrid="false"
     showborder="false"
     borderlayer="false"
     inkscape:zoom="3.9408307"
     inkscape:cx="12.941434"
     inkscape:cy="87.037487"
     inkscape:window-width="1920"
     inkscape:window-height="1011"
     inkscape:window-x="0"
     inkscape:window-y="0"
     inkscape:window-maximized="1"
     inkscape:current-layer="layer1" />
  <defs
     id="defs2" />
  <g
     inkscape:label="Layer 1"
     inkscape:groupmode="layer"
     id="layer1"
     transform="translate(-78.929573,-122.3262)">
    <path
       style="fill:#ffffff;fill-opacity:1;stroke:none;stroke-width:1.56299;stroke-linejoin:miter;stroke-dasharray:none;stroke-opacity:1;paint-order:stroke fill markers"
       d="m 78.976818,143.92414 11.10879,0.0137 0.03414,-3.40892 5.596817,5.87262 -5.64695,5.89158 -0.02118,-3.62882 -11.118862,0.10393 z"
       id="path2421-3"
       sodipodi:nodetypes="cccccccc" />
    <path
       id="rect322"
       style="color:#000000;fill:#ffffff;fill-opacity:1;stroke:none;-inkscape-stroke:none"
       d="m 80.634779,122.3262 v 1.38286 18.11569 l 2.763656,0.004 v -16.73697 h 29.197185 v 44.37094 H 83.398435 v -18.6924 l -2.763656,0.0305 v 21.42763 H 115.36134 V 122.3262 Z" />
    <path
       id="rect1729"
       style="fill:#ffffff;fill-opacity:1;stroke-width:1.965"
       d="M 85.943099 127.48144 L 85.943099 141.81907 L 88.653011 141.8232 L 88.711405 135.05359 L 97.838497 146.40328 L 88.639575 157.77623 L 88.605985 150.70018 L 85.943099 150.72963 L 85.943099 167.20512 L 105.20291 159.36063 L 105.29851 127.48144 L 85.943099 127.48144 z M 101.27963 137.32063 A 1.4804132 3.0893109 0 0 1 102.76016 140.40985 A 1.4804132 3.0893109 0 0 1 101.27963 143.49959 A 1.4804132 3.0893109 0 0 1 99.799617 140.40985 A 1.4804132 3.0893109 0 0 1 101.27963 137.32063 z " />
  </g>
</svg>
